<svg width="29" height="30" viewBox="0 0 29 30" fill="none" xmlns="http://www.w3.org/2000/svg">
<path d="M8.91699 23.5002C7.35866 23.5002 6.09783 24.7752 6.09783 26.3335C6.09783 27.8918 7.35866 29.1668 8.91699 29.1668C10.4753 29.1668 11.7503 27.8918 11.7503 26.3335C11.7503 24.7752 10.4753 23.5002 8.91699 23.5002ZM0.416992 0.833496V3.66683H3.25033L8.35033 14.4193L6.43783 17.8902C6.21116 18.2868 6.08366 18.7543 6.08366 19.2502C6.08366 20.8085 7.35866 22.0835 8.91699 22.0835H25.917V19.2502H9.51199C9.31366 19.2502 9.15783 19.0943 9.15783 18.896L9.20033 18.726L10.4753 16.4168H21.0295C22.092 16.4168 23.027 15.836 23.5087 14.9577L28.5803 5.7635C28.6937 5.56516 28.7503 5.32433 28.7503 5.0835C28.7503 4.30433 28.1128 3.66683 27.3337 3.66683H6.38116L5.04949 0.833496H0.416992ZM23.0837 23.5002C21.5253 23.5002 20.2645 24.7752 20.2645 26.3335C20.2645 27.8918 21.5253 29.1668 23.0837 29.1668C24.642 29.1668 25.917 27.8918 25.917 26.3335C25.917 24.7752 24.642 23.5002 23.0837 23.5002Z" fill="#F35324"/>
</svg>
