<svg width="70" height="70" viewBox="0 0 70 70" fill="none" xmlns="http://www.w3.org/2000/svg">
<path fill-rule="evenodd" clip-rule="evenodd" d="M0.635 9.25C0.635 8.695 0.905 7.835 2.105 6.715C3.305 5.595 5.22 4.44 7.84 3.405C13.07 1.345 20.5 0 28.87 0C37.24 0 44.67 1.345 49.9 3.405C52.525 4.44 54.435 5.595 55.635 6.715C56.835 7.835 57.11 8.695 57.11 9.25C57.11 9.805 56.835 10.665 55.635 11.78C54.435 12.905 52.525 14.055 49.9 15.09C44.675 17.155 37.24 18.5 28.87 18.5C20.5 18.5 13.07 17.15 7.84 15.09C5.22 14.055 3.31 12.905 2.105 11.78C0.905 10.665 0.635 9.805 0.635 9.25ZM57.745 18.05C56.13 19.15 54.245 20.1 52.195 20.905C46.07 23.32 37.825 24.75 28.87 24.75C19.915 24.75 11.67 23.32 5.55 20.905C3.6029 20.1573 1.74213 19.2018 0 18.055V30.975C0.195 31.44 0.59 32.015 1.33 32.69C2.57 33.82 4.54 34.98 7.245 36.02C12.625 38.09 20.27 39.435 28.87 39.435C30.2267 39.435 31.555 39.4017 32.855 39.335C35.5225 35.38 39.3398 32.3391 43.791 30.6231C48.2423 28.9072 53.1129 28.5989 57.745 29.74V18.05ZM28.87 45.69L29.845 45.685C29.1966 47.8593 28.8665 50.1161 28.865 52.385C28.865 55.51 29.48 58.485 30.595 61.205C30.0217 61.2217 29.4467 61.23 28.87 61.23C12.92 61.23 0 55.68 0 48.855V39.435C1.49 40.35 3.18 41.15 5 41.85C11.26 44.26 19.7 45.685 28.87 45.685V45.69ZM52.175 69.44C56.6996 69.44 61.0389 67.6426 64.2382 64.4432C67.4376 61.2439 69.235 56.9046 69.235 52.38C69.235 47.8554 67.4376 43.5161 64.2382 40.3168C61.0389 37.1174 56.6996 35.32 52.175 35.32C47.6504 35.32 43.3111 37.1174 40.1118 40.3168C36.9124 43.5161 35.115 47.8554 35.115 52.38C35.115 56.9046 36.9124 61.2439 40.1118 64.4432C43.3111 67.6426 47.6504 69.44 52.175 69.44ZM41.595 52.38C41.595 50.655 42.995 49.255 44.72 49.255H59.63C60.4588 49.255 61.2537 49.5842 61.8397 50.1703C62.4258 50.7563 62.755 51.5512 62.755 52.38C62.755 53.2088 62.4258 54.0037 61.8397 54.5897C61.2537 55.1758 60.4588 55.505 59.63 55.505H44.72C43.8912 55.505 43.0963 55.1758 42.5103 54.5897C41.9242 54.0037 41.595 53.2088 41.595 52.38Z" fill="#F35324"/>
</svg>
