<svg width="71" height="70" viewBox="0 0 71 70" fill="none" xmlns="http://www.w3.org/2000/svg">
<path d="M62.2285 56.875H42.1385C41.8117 55.9601 41.2858 55.1291 40.5988 54.4422C39.9119 53.7552 39.0809 53.2293 38.166 52.9025V41.5625H53.4785C54.6383 41.5608 55.7501 41.0993 56.5702 40.2792C57.3903 39.4591 57.8518 38.3473 57.8535 37.1875V8.75C57.8518 7.59021 57.3903 6.47842 56.5702 5.65832C55.7501 4.83823 54.6383 4.37674 53.4785 4.375H18.4785C17.3187 4.37674 16.2069 4.83823 15.3868 5.65832C14.5667 6.47842 14.1053 7.59021 14.1035 8.75V37.1875C14.1053 38.3473 14.5667 39.4591 15.3868 40.2792C16.2069 41.0993 17.3187 41.5608 18.4785 41.5625H33.791V52.9025C32.8761 53.2293 32.0452 53.7552 31.3582 54.4422C30.6712 55.1291 30.1453 55.9601 29.8185 56.875H9.72852V61.25H29.8185C30.264 62.5287 31.0964 63.6371 32.2001 64.4214C33.3039 65.2057 34.6244 65.6271 35.9785 65.6271C37.3326 65.6271 38.6531 65.2057 39.7569 64.4214C40.8607 63.6371 41.693 62.5287 42.1385 61.25H62.2285V56.875ZM53.4785 26.25H18.4785V19.6875H53.4785V26.25ZM53.4785 8.75V15.3125H18.4785V8.75H53.4785ZM18.4785 30.625H53.4785V37.1875H18.4785V30.625ZM35.9785 61.25C35.5459 61.25 35.1229 61.1217 34.7632 60.8813C34.4035 60.641 34.1231 60.2993 33.9575 59.8996C33.792 59.4999 33.7486 59.0601 33.833 58.6357C33.9175 58.2114 34.1258 57.8216 34.4317 57.5157C34.7376 57.2098 35.1274 57.0014 35.5518 56.917C35.9761 56.8326 36.4159 56.8759 36.8156 57.0415C37.2153 57.2071 37.557 57.4875 37.7974 57.8472C38.0377 58.2069 38.166 58.6299 38.166 59.0625C38.166 59.6427 37.9355 60.1991 37.5253 60.6093C37.1151 61.0195 36.5587 61.25 35.9785 61.25Z" fill="#F35324"/>
</svg>
