<svg width="71" height="70" viewBox="0 0 71 70" fill="none" xmlns="http://www.w3.org/2000/svg">
<path d="M35.4674 5.83333C19.3587 5.83333 6.30078 18.8912 6.30078 35C6.30078 51.1087 19.3587 64.1667 35.4674 64.1667C51.5762 64.1667 64.6341 51.1087 64.6341 35C64.6341 18.8912 51.5762 5.83333 35.4674 5.83333ZM55.6449 23.3333H46.2679C45.8321 20.0515 45.2825 16.7858 44.6199 13.5421C49.251 15.5372 53.1167 18.9704 55.6449 23.3333ZM38.4249 11.8767C38.6233 12.9033 39.5537 17.8208 40.3062 23.3333H30.6287C31.3812 17.8208 32.3116 12.9033 32.5099 11.8767C33.4812 11.7512 34.4641 11.6667 35.4674 11.6667C36.4708 11.6667 37.4537 11.7512 38.4249 11.8767ZM41.3008 35C41.3008 36.7442 41.1754 38.7508 40.9829 40.8333H29.952C29.7595 38.7508 29.6341 36.7442 29.6341 35C29.6341 33.2558 29.7595 31.2492 29.952 29.1667H40.9829C41.1754 31.2492 41.3008 33.2558 41.3008 35ZM26.3149 13.5421C25.6524 16.7858 25.1028 20.0515 24.667 23.3333H15.2899C17.8182 18.9704 21.6839 15.5372 26.3149 13.5421ZM12.9012 29.1667H24.0458C23.897 31.115 23.8008 33.0867 23.8008 35C23.8008 36.9133 23.897 38.885 24.0487 40.8333H12.9012C12.417 38.9637 12.1341 37.0183 12.1341 35C12.1341 32.9817 12.4199 31.0362 12.9012 29.1667ZM15.2899 46.6667H24.667C25.2154 50.82 25.892 54.3958 26.3149 56.4579C21.6839 54.4628 17.8182 51.0296 15.2899 46.6667ZM32.5099 58.1233C31.7842 54.3213 31.1569 50.5011 30.6287 46.6667H40.3062C39.7767 50.5009 39.1494 54.3211 38.4249 58.1233C37.4537 58.2487 36.4708 58.3333 35.4674 58.3333C34.4641 58.3333 33.4812 58.2487 32.5099 58.1233ZM44.6199 56.4579C45.0429 54.3958 45.7195 50.82 46.2679 46.6667H55.6449C53.1167 51.0296 49.251 54.4628 44.6199 56.4579ZM58.0337 40.8333H46.8891C47.0379 38.885 47.1341 36.9133 47.1341 35C47.1341 33.0867 47.0379 31.115 46.8862 29.1667H58.0308C58.5149 31.0362 58.8008 32.9817 58.8008 35C58.8008 37.0183 58.5179 38.9637 58.0337 40.8333Z" fill="#F35324"/>
</svg>
