<svg width="71" height="70" viewBox="0 0 71 70" fill="none" xmlns="http://www.w3.org/2000/svg">
<path d="M12.6449 61.25C11.0407 61.25 9.66791 60.6793 8.52652 59.5379C7.38513 58.3965 6.81347 57.0228 6.81152 55.4167V14.5833C6.81152 12.9792 7.38319 11.6064 8.52652 10.465C9.66986 9.32361 11.0426 8.75194 12.6449 8.75H27.2282C28.8324 8.75 30.2061 9.32167 31.3494 10.465C32.4928 11.6083 33.0635 12.9811 33.0615 14.5833V55.4167C33.0615 57.0208 32.4908 58.3946 31.3494 59.5379C30.2081 60.6813 28.8343 61.2519 27.2282 61.25H12.6449ZM44.7282 61.25C43.124 61.25 41.7512 60.6793 40.6099 59.5379C39.4685 58.3965 38.8968 57.0228 38.8949 55.4167V14.5833C38.8949 12.9792 39.4665 11.6064 40.6099 10.465C41.7532 9.32361 43.126 8.75194 44.7282 8.75H59.3115C60.9157 8.75 62.2894 9.32167 63.4328 10.465C64.5761 11.6083 65.1468 12.9811 65.1449 14.5833V55.4167C65.1449 57.0208 64.5742 58.3946 63.4328 59.5379C62.2914 60.6813 60.9176 61.2519 59.3115 61.25H44.7282ZM15.5615 43.75H24.3115V37.9167H15.5615V43.75ZM47.6449 43.75H56.3949V37.9167H47.6449V43.75ZM15.5615 35H24.3115V29.1667H15.5615V35ZM47.6449 35H56.3949V29.1667H47.6449V35ZM15.5615 26.25H24.3115V20.4167H15.5615V26.25ZM47.6449 26.25H56.3949V20.4167H47.6449V26.25Z" fill="#F35324"/>
</svg>
