<svg width="60" height="60" viewBox="0 0 60 60" fill="none" xmlns="http://www.w3.org/2000/svg">
<path d="M36.8029 57.0425C47.9204 54.2175 56.3329 44.615 57.3878 32.8925H44.9354C44.4704 41.76 41.5454 50.01 36.8029 57.0425ZM57.3878 27.8925C56.3329 16.1675 47.9129 6.5625 36.7929 3.7375C41.5379 10.7725 44.4679 19.0225 44.9354 27.8925H57.3878ZM23.2104 3.7375C12.0854 6.5625 3.67035 16.1675 2.61035 27.8925H15.0654C15.5329 19.0225 18.4629 10.7725 23.2104 3.7375ZM2.61285 32.8925C3.13207 38.5502 5.38934 43.9086 9.07492 48.2325C12.7605 52.5563 17.6938 55.6338 23.1979 57.0425C18.4554 50.01 15.5304 41.76 15.0654 32.8925H2.61285ZM30.0004 57.7975C24.2329 50.835 20.6203 42.245 20.0753 32.8925H39.9279C39.3779 42.2425 35.7679 50.835 30.0029 57.7975M30.0004 3C35.7679 9.96 39.3754 18.5475 39.9254 27.8925H20.0753C20.6254 18.5475 24.2354 9.96 30.0004 3Z" fill="#F35324"/>
</svg>
