<svg width="60" height="60" viewBox="0 0 60 60" fill="none" xmlns="http://www.w3.org/2000/svg">
<path d="M0 42V46.494C0 47.325 0.675 48 1.506 48H4.497C4.69474 48.0004 4.89061 47.9617 5.07334 47.8861C5.25606 47.8105 5.42204 47.6996 5.56173 47.5596C5.70141 47.4196 5.81205 47.2534 5.88726 47.0706C5.96248 46.8877 6.00079 46.6917 6 46.494V42C6 39.123 8.403 35.181 12 33.663V27.348C5.052 28.956 0 35.91 0 42ZM36.195 14.103L28.605 19.797C27.564 20.577 26.298 21 24.996 21H18.015C16.35 21 15 22.35 15 24.015V35.988C15 37.65 16.35 39 18.015 39H24.996C26.298 39 27.564 39.423 28.605 40.203L36.198 45.897C38.0168 47.2624 40.2297 48.0004 42.504 48H48V12H42.504C40.23 12 38.016 12.738 36.195 14.103ZM51 18V24H60V18H51ZM51 42H60V36H51V42Z" fill="#F35324"/>
</svg>
