<svg width="60" height="60" viewBox="0 0 60 60" fill="none" xmlns="http://www.w3.org/2000/svg">
<path d="M54.5376 11.6031C54.3133 11.3461 54.0381 11.1384 53.7295 10.993C53.4209 10.8476 53.0855 10.7678 52.7445 10.7585C47.4484 10.62 40.7468 4.95694 36.3161 2.73463C33.5791 1.36617 31.7722 0.463864 30.4153 0.226172C30.1398 0.185162 29.8598 0.18594 29.5845 0.22848C28.2276 0.466172 26.4207 1.36848 23.6861 2.73694C19.2553 4.95694 12.5538 10.62 7.2576 10.7585C6.91645 10.7688 6.58107 10.8491 6.27223 10.9944C5.9634 11.1397 5.68769 11.3469 5.46221 11.6031C4.99549 12.1322 4.75445 12.8231 4.79067 13.5277C5.92837 36.6577 14.2245 50.9723 28.7814 59.2916C29.1599 59.5062 29.5799 59.6169 29.9976 59.6169C30.4153 59.6169 30.8353 59.5062 31.2161 59.2916C45.773 50.9723 54.0668 36.6577 55.2068 13.5277C55.2462 12.823 55.0057 12.1313 54.5376 11.6031ZM42.9622 20.7L30.6784 38.8269C30.2376 39.4777 29.5453 39.9093 28.8599 39.9093C28.1745 39.9093 27.4084 39.5331 26.9261 39.0508L18.2676 30.39C17.9849 30.1063 17.8262 29.7221 17.8262 29.3216C17.8262 28.921 17.9849 28.5368 18.2676 28.2531L20.4068 26.1093C20.6917 25.8288 21.0755 25.6716 21.4753 25.6716C21.8751 25.6716 22.2588 25.8288 22.5438 26.1093L28.1745 31.74L37.9568 17.3008C38.1832 16.9704 38.531 16.7429 38.9245 16.6681C39.318 16.5933 39.725 16.6772 40.0568 16.9016L42.5607 18.6C42.8915 18.826 43.1194 19.1737 43.1946 19.5672C43.2699 19.9607 43.1863 20.3679 42.9622 20.7Z" fill="#F35324"/>
</svg>
