<svg width="71" height="70" viewBox="0 0 71 70" fill="none" xmlns="http://www.w3.org/2000/svg">
<path d="M16.0446 36.9444V21.3889H10.2113C8.66417 21.3889 7.18044 22.0035 6.08647 23.0974C4.99251 24.1914 4.37793 25.6751 4.37793 27.2222V62.2222C4.38082 62.5833 4.48423 62.9365 4.67655 63.2422C4.86887 63.5478 5.14252 63.7939 5.46682 63.9528C5.77925 64.0949 6.12372 64.1517 6.46524 64.1176C6.80676 64.0834 7.13315 63.9595 7.41126 63.7583L17.4252 56.3889H43.5585C44.2954 56.4107 45.029 56.2809 45.7138 56.0077C46.3986 55.7344 47.02 55.3235 47.5395 54.8003C48.059 54.2772 48.4656 53.6529 48.734 52.9663C49.0025 52.2796 49.1271 51.5451 49.1002 50.8083V48.6111H27.7113C24.6171 48.6111 21.6496 47.382 19.4617 45.194C17.2738 43.0061 16.0446 40.0386 16.0446 36.9444Z" fill="#F35324"/>
<path d="M60.7668 7.77778H27.7113C26.1642 7.77778 24.6804 8.39236 23.5865 9.48632C22.4925 10.5803 21.8779 12.064 21.8779 13.6111V36.9444C21.8779 38.4915 22.4925 39.9753 23.5865 41.0692C24.6804 42.1632 26.1642 42.7778 27.7113 42.7778H54.0585L63.3529 49.9917C63.6292 50.1959 63.9547 50.3234 64.2963 50.3609C64.6379 50.3985 64.9833 50.3449 65.2974 50.2056C65.6283 50.048 65.9079 49.8001 66.104 49.4904C66.3001 49.1808 66.4047 48.8221 66.4057 48.4556V13.6111C66.4065 12.0971 65.8187 10.6421 64.7665 9.55357C63.7142 8.46503 62.28 7.82824 60.7668 7.77778Z" fill="#F35324"/>
</svg>
